<mxfile host="app.diagrams.net" agent="Mozilla/5.0 (Windows NT 10.0; Win64; x64) AppleWebKit/537.36 (KHTML, like Gecko) Chrome/131.0.0.0 Safari/537.36" version="24.8.6">
  <diagram name="PÃ¡gina-1" id="Bd_Bw9SWld3NTeidYwY_">
    <mxGraphModel dx="1434" dy="738" grid="1" gridSize="10" guides="1" tooltips="1" connect="1" arrows="1" fold="1" page="1" pageScale="1" pageWidth="827" pageHeight="1169" math="0" shadow="0">
      <root>
        <mxCell id="0" />
        <mxCell id="1" parent="0" />
        <mxCell id="AF6Pj5pqU_9BrOkmDMX6-2" value="AUTOR" style="whiteSpace=wrap;html=1;align=center;" vertex="1" parent="1">
          <mxGeometry x="120" y="320" width="100" height="40" as="geometry" />
        </mxCell>
        <mxCell id="AF6Pj5pqU_9BrOkmDMX6-3" value="LIBRO" style="whiteSpace=wrap;html=1;align=center;" vertex="1" parent="1">
          <mxGeometry x="120" y="80" width="100" height="40" as="geometry" />
        </mxCell>
        <mxCell id="AF6Pj5pqU_9BrOkmDMX6-4" value="EDITORIAL" style="whiteSpace=wrap;html=1;align=center;" vertex="1" parent="1">
          <mxGeometry x="590" y="80" width="100" height="40" as="geometry" />
        </mxCell>
        <mxCell id="AF6Pj5pqU_9BrOkmDMX6-5" value="publica" style="shape=rhombus;perimeter=rhombusPerimeter;whiteSpace=wrap;html=1;align=center;" vertex="1" parent="1">
          <mxGeometry x="350" y="70" width="120" height="60" as="geometry" />
        </mxCell>
        <mxCell id="AF6Pj5pqU_9BrOkmDMX6-6" value="escribe" style="shape=rhombus;perimeter=rhombusPerimeter;whiteSpace=wrap;html=1;align=center;" vertex="1" parent="1">
          <mxGeometry x="110" y="190" width="120" height="60" as="geometry" />
        </mxCell>
        <mxCell id="AF6Pj5pqU_9BrOkmDMX6-7" value="contrata" style="shape=rhombus;perimeter=rhombusPerimeter;whiteSpace=wrap;html=1;align=center;" vertex="1" parent="1">
          <mxGeometry x="580" y="310" width="120" height="60" as="geometry" />
        </mxCell>
        <mxCell id="AF6Pj5pqU_9BrOkmDMX6-8" value="" style="endArrow=none;html=1;rounded=0;exitX=0.5;exitY=0;exitDx=0;exitDy=0;entryX=0.5;entryY=1;entryDx=0;entryDy=0;" edge="1" parent="1" source="AF6Pj5pqU_9BrOkmDMX6-7" target="AF6Pj5pqU_9BrOkmDMX6-4">
          <mxGeometry relative="1" as="geometry">
            <mxPoint x="480" y="120" as="sourcePoint" />
            <mxPoint x="640" y="120" as="targetPoint" />
          </mxGeometry>
        </mxCell>
        <mxCell id="AF6Pj5pqU_9BrOkmDMX6-9" value="" style="endArrow=none;html=1;rounded=0;entryX=0;entryY=0.5;entryDx=0;entryDy=0;" edge="1" parent="1" target="AF6Pj5pqU_9BrOkmDMX6-7">
          <mxGeometry relative="1" as="geometry">
            <mxPoint x="220" y="339.5" as="sourcePoint" />
            <mxPoint x="380" y="339.5" as="targetPoint" />
          </mxGeometry>
        </mxCell>
        <mxCell id="AF6Pj5pqU_9BrOkmDMX6-10" value="" style="endArrow=none;html=1;rounded=0;entryX=0.5;entryY=0;entryDx=0;entryDy=0;" edge="1" parent="1" target="AF6Pj5pqU_9BrOkmDMX6-2">
          <mxGeometry relative="1" as="geometry">
            <mxPoint x="170" y="250" as="sourcePoint" />
            <mxPoint x="330" y="250" as="targetPoint" />
          </mxGeometry>
        </mxCell>
        <mxCell id="AF6Pj5pqU_9BrOkmDMX6-11" value="" style="endArrow=none;html=1;rounded=0;entryX=0.5;entryY=0;entryDx=0;entryDy=0;" edge="1" parent="1">
          <mxGeometry relative="1" as="geometry">
            <mxPoint x="169.5" y="120" as="sourcePoint" />
            <mxPoint x="169.5" y="190" as="targetPoint" />
          </mxGeometry>
        </mxCell>
        <mxCell id="AF6Pj5pqU_9BrOkmDMX6-12" value="" style="endArrow=none;html=1;rounded=0;entryX=0;entryY=0.5;entryDx=0;entryDy=0;" edge="1" parent="1" target="AF6Pj5pqU_9BrOkmDMX6-5">
          <mxGeometry relative="1" as="geometry">
            <mxPoint x="220" y="99.5" as="sourcePoint" />
            <mxPoint x="340" y="100" as="targetPoint" />
          </mxGeometry>
        </mxCell>
        <mxCell id="AF6Pj5pqU_9BrOkmDMX6-13" value="" style="endArrow=none;html=1;rounded=0;exitX=1;exitY=0.5;exitDx=0;exitDy=0;entryX=0;entryY=0.5;entryDx=0;entryDy=0;" edge="1" parent="1" source="AF6Pj5pqU_9BrOkmDMX6-5" target="AF6Pj5pqU_9BrOkmDMX6-4">
          <mxGeometry relative="1" as="geometry">
            <mxPoint x="480" y="100" as="sourcePoint" />
            <mxPoint x="580" y="100" as="targetPoint" />
          </mxGeometry>
        </mxCell>
        <mxCell id="AF6Pj5pqU_9BrOkmDMX6-16" value="autor_id" style="ellipse;whiteSpace=wrap;html=1;align=center;fontStyle=4;" vertex="1" parent="1">
          <mxGeometry y="280" width="100" height="40" as="geometry" />
        </mxCell>
        <mxCell id="AF6Pj5pqU_9BrOkmDMX6-17" value="" style="endArrow=none;html=1;rounded=0;exitX=1;exitY=1;exitDx=0;exitDy=0;" edge="1" parent="1" source="AF6Pj5pqU_9BrOkmDMX6-16">
          <mxGeometry relative="1" as="geometry">
            <mxPoint x="-40" y="339.5" as="sourcePoint" />
            <mxPoint x="120" y="339.5" as="targetPoint" />
          </mxGeometry>
        </mxCell>
        <mxCell id="AF6Pj5pqU_9BrOkmDMX6-18" value="nombre_autor" style="ellipse;whiteSpace=wrap;html=1;align=center;" vertex="1" parent="1">
          <mxGeometry y="360" width="100" height="40" as="geometry" />
        </mxCell>
        <mxCell id="AF6Pj5pqU_9BrOkmDMX6-19" value="" style="endArrow=none;html=1;rounded=0;exitX=0.5;exitY=0;exitDx=0;exitDy=0;" edge="1" parent="1" source="AF6Pj5pqU_9BrOkmDMX6-18">
          <mxGeometry relative="1" as="geometry">
            <mxPoint x="-40" y="350" as="sourcePoint" />
            <mxPoint x="120" y="350" as="targetPoint" />
          </mxGeometry>
        </mxCell>
        <mxCell id="AF6Pj5pqU_9BrOkmDMX6-20" value="nacionalidad" style="ellipse;whiteSpace=wrap;html=1;align=center;" vertex="1" parent="1">
          <mxGeometry x="60" y="410" width="100" height="40" as="geometry" />
        </mxCell>
        <mxCell id="AF6Pj5pqU_9BrOkmDMX6-21" value="" style="endArrow=none;html=1;rounded=0;entryX=0.5;entryY=0;entryDx=0;entryDy=0;" edge="1" parent="1" target="AF6Pj5pqU_9BrOkmDMX6-20">
          <mxGeometry relative="1" as="geometry">
            <mxPoint x="130" y="360" as="sourcePoint" />
            <mxPoint x="290" y="360" as="targetPoint" />
          </mxGeometry>
        </mxCell>
        <mxCell id="AF6Pj5pqU_9BrOkmDMX6-22" value="otros_datos" style="ellipse;whiteSpace=wrap;html=1;align=center;" vertex="1" parent="1">
          <mxGeometry x="170" y="410" width="100" height="40" as="geometry" />
        </mxCell>
        <mxCell id="AF6Pj5pqU_9BrOkmDMX6-23" value="" style="endArrow=none;html=1;rounded=0;entryX=0.5;entryY=0;entryDx=0;entryDy=0;" edge="1" parent="1" target="AF6Pj5pqU_9BrOkmDMX6-22">
          <mxGeometry relative="1" as="geometry">
            <mxPoint x="170" y="360" as="sourcePoint" />
            <mxPoint x="330" y="360" as="targetPoint" />
          </mxGeometry>
        </mxCell>
        <mxCell id="AF6Pj5pqU_9BrOkmDMX6-24" value="libro_id" style="ellipse;whiteSpace=wrap;html=1;align=center;fontStyle=4;" vertex="1" parent="1">
          <mxGeometry x="160" y="10" width="100" height="40" as="geometry" />
        </mxCell>
        <mxCell id="AF6Pj5pqU_9BrOkmDMX6-25" value="" style="endArrow=none;html=1;rounded=0;entryX=0.5;entryY=1;entryDx=0;entryDy=0;" edge="1" parent="1" target="AF6Pj5pqU_9BrOkmDMX6-24">
          <mxGeometry relative="1" as="geometry">
            <mxPoint x="180" y="80" as="sourcePoint" />
            <mxPoint x="340" y="80" as="targetPoint" />
          </mxGeometry>
        </mxCell>
        <mxCell id="AF6Pj5pqU_9BrOkmDMX6-26" value="titulo" style="ellipse;whiteSpace=wrap;html=1;align=center;" vertex="1" parent="1">
          <mxGeometry x="30" y="20" width="100" height="40" as="geometry" />
        </mxCell>
        <mxCell id="AF6Pj5pqU_9BrOkmDMX6-27" value="" style="endArrow=none;html=1;rounded=0;exitX=0.5;exitY=1;exitDx=0;exitDy=0;" edge="1" parent="1" source="AF6Pj5pqU_9BrOkmDMX6-26">
          <mxGeometry relative="1" as="geometry">
            <mxPoint x="10" y="80" as="sourcePoint" />
            <mxPoint x="170" y="80" as="targetPoint" />
          </mxGeometry>
        </mxCell>
        <mxCell id="AF6Pj5pqU_9BrOkmDMX6-28" value="fecha" style="ellipse;whiteSpace=wrap;html=1;align=center;" vertex="1" parent="1">
          <mxGeometry x="10" y="120" width="100" height="40" as="geometry" />
        </mxCell>
        <mxCell id="AF6Pj5pqU_9BrOkmDMX6-29" value="" style="endArrow=none;html=1;rounded=0;exitX=1;exitY=0.5;exitDx=0;exitDy=0;" edge="1" parent="1" source="AF6Pj5pqU_9BrOkmDMX6-28">
          <mxGeometry relative="1" as="geometry">
            <mxPoint x="-40" y="99.5" as="sourcePoint" />
            <mxPoint x="120" y="99.5" as="targetPoint" />
          </mxGeometry>
        </mxCell>
        <mxCell id="AF6Pj5pqU_9BrOkmDMX6-30" value="editorial_id" style="ellipse;whiteSpace=wrap;html=1;align=center;fontStyle=4;" vertex="1" parent="1">
          <mxGeometry x="540" y="20" width="100" height="40" as="geometry" />
        </mxCell>
        <mxCell id="AF6Pj5pqU_9BrOkmDMX6-31" value="" style="endArrow=none;html=1;rounded=0;exitX=0.5;exitY=1;exitDx=0;exitDy=0;entryX=0.25;entryY=0;entryDx=0;entryDy=0;" edge="1" parent="1" source="AF6Pj5pqU_9BrOkmDMX6-30" target="AF6Pj5pqU_9BrOkmDMX6-4">
          <mxGeometry relative="1" as="geometry">
            <mxPoint x="440" y="79" as="sourcePoint" />
            <mxPoint x="600" y="79" as="targetPoint" />
          </mxGeometry>
        </mxCell>
        <mxCell id="AF6Pj5pqU_9BrOkmDMX6-32" value="nombre_editorial" style="ellipse;whiteSpace=wrap;html=1;align=center;" vertex="1" parent="1">
          <mxGeometry x="690" y="20" width="100" height="40" as="geometry" />
        </mxCell>
        <mxCell id="AF6Pj5pqU_9BrOkmDMX6-33" value="" style="endArrow=none;html=1;rounded=0;entryX=0.5;entryY=1;entryDx=0;entryDy=0;exitX=0.75;exitY=0;exitDx=0;exitDy=0;" edge="1" parent="1" source="AF6Pj5pqU_9BrOkmDMX6-4" target="AF6Pj5pqU_9BrOkmDMX6-32">
          <mxGeometry relative="1" as="geometry">
            <mxPoint x="660" y="70" as="sourcePoint" />
            <mxPoint x="810" y="79" as="targetPoint" />
          </mxGeometry>
        </mxCell>
        <mxCell id="AF6Pj5pqU_9BrOkmDMX6-34" value="direccion" style="ellipse;whiteSpace=wrap;html=1;align=center;" vertex="1" parent="1">
          <mxGeometry x="700" y="150" width="100" height="40" as="geometry" />
        </mxCell>
        <mxCell id="AF6Pj5pqU_9BrOkmDMX6-35" value="" style="endArrow=none;html=1;rounded=0;entryX=0.5;entryY=0;entryDx=0;entryDy=0;exitX=0.75;exitY=1;exitDx=0;exitDy=0;" edge="1" parent="1" source="AF6Pj5pqU_9BrOkmDMX6-4" target="AF6Pj5pqU_9BrOkmDMX6-34">
          <mxGeometry relative="1" as="geometry">
            <mxPoint x="690" y="130" as="sourcePoint" />
            <mxPoint x="820" y="119" as="targetPoint" />
          </mxGeometry>
        </mxCell>
        <mxCell id="AF6Pj5pqU_9BrOkmDMX6-36" value="(1, N)" style="text;html=1;align=center;verticalAlign=middle;resizable=0;points=[];autosize=1;strokeColor=none;fillColor=none;" vertex="1" parent="1">
          <mxGeometry x="170" y="120" width="50" height="30" as="geometry" />
        </mxCell>
        <mxCell id="AF6Pj5pqU_9BrOkmDMX6-37" value="(0, N)" style="text;html=1;align=center;verticalAlign=middle;resizable=0;points=[];autosize=1;strokeColor=none;fillColor=none;" vertex="1" parent="1">
          <mxGeometry x="120" y="290" width="50" height="30" as="geometry" />
        </mxCell>
        <mxCell id="AF6Pj5pqU_9BrOkmDMX6-38" value="(1, 1)" style="text;html=1;align=center;verticalAlign=middle;resizable=0;points=[];autosize=1;strokeColor=none;fillColor=none;" vertex="1" parent="1">
          <mxGeometry x="540" y="100" width="50" height="30" as="geometry" />
        </mxCell>
        <mxCell id="AF6Pj5pqU_9BrOkmDMX6-39" value="(0, N)" style="text;html=1;align=center;verticalAlign=middle;resizable=0;points=[];autosize=1;strokeColor=none;fillColor=none;" vertex="1" parent="1">
          <mxGeometry x="220" y="75" width="50" height="30" as="geometry" />
        </mxCell>
        <mxCell id="AF6Pj5pqU_9BrOkmDMX6-40" value="M : N" style="text;html=1;align=center;verticalAlign=middle;resizable=0;points=[];autosize=1;strokeColor=none;fillColor=none;" vertex="1" parent="1">
          <mxGeometry x="230" y="205" width="50" height="30" as="geometry" />
        </mxCell>
        <mxCell id="AF6Pj5pqU_9BrOkmDMX6-41" value="1 : N" style="text;html=1;align=center;verticalAlign=middle;resizable=0;points=[];autosize=1;strokeColor=none;fillColor=none;" vertex="1" parent="1">
          <mxGeometry x="385" y="130" width="50" height="30" as="geometry" />
        </mxCell>
        <mxCell id="AF6Pj5pqU_9BrOkmDMX6-42" value="(0, N)" style="text;html=1;align=center;verticalAlign=middle;resizable=0;points=[];autosize=1;strokeColor=none;fillColor=none;" vertex="1" parent="1">
          <mxGeometry x="220" y="310" width="50" height="30" as="geometry" />
        </mxCell>
        <mxCell id="AF6Pj5pqU_9BrOkmDMX6-43" value="(1, N)" style="text;html=1;align=center;verticalAlign=middle;resizable=0;points=[];autosize=1;strokeColor=none;fillColor=none;" vertex="1" parent="1">
          <mxGeometry x="590" y="120" width="50" height="30" as="geometry" />
        </mxCell>
        <mxCell id="AF6Pj5pqU_9BrOkmDMX6-44" value="M : N" style="text;html=1;align=center;verticalAlign=middle;resizable=0;points=[];autosize=1;strokeColor=none;fillColor=none;" vertex="1" parent="1">
          <mxGeometry x="700" y="325" width="50" height="30" as="geometry" />
        </mxCell>
      </root>
    </mxGraphModel>
  </diagram>
</mxfile>
